<svg width="30" height="28" viewBox="0 0 30 28" fill="none" xmlns="http://www.w3.org/2000/svg">
<rect width="29.1721" height="28" rx="4" fill="#FA4F19"/>
<circle cx="14.5" cy="14.5" r="9.75" stroke="white" stroke-width="1.5"/>
<path d="M14.6972 16.9615H13.8787L13.5332 9.36157H15.0426L14.6972 16.9615ZM13.3831 19.135C13.3831 18.7991 13.4682 18.5616 13.6384 18.4225C13.8086 18.2786 14.0214 18.2066 14.2767 18.2066C14.527 18.2066 14.7372 18.2786 14.9075 18.4225C15.0827 18.5616 15.1703 18.7991 15.1703 19.135C15.1703 19.466 15.0827 19.7083 14.9075 19.8619C14.7372 20.0106 14.527 20.085 14.2767 20.085C14.0214 20.085 13.8086 20.0106 13.6384 19.8619C13.4682 19.7083 13.3831 19.466 13.3831 19.135Z" fill="white"/>
</svg>
