<svg width="22" height="22" viewBox="0 0 22 22" fill="none" xmlns="http://www.w3.org/2000/svg">
<path d="M6.44012 1C6.88448 1 7.29391 1.241 7.50964 1.62954L9.00596 4.32492C9.20187 4.67784 9.2111 5.10471 9.03055 5.46576L7.58903 8.34885C7.58903 8.34885 8.00678 10.4966 9.7551 12.2449C11.5035 13.9932 13.644 14.4037 13.644 14.4037L16.5266 12.9625C16.8879 12.7818 17.315 12.7911 17.6681 12.9874L20.3711 14.4902C20.7593 14.7061 21 15.1153 21 15.5594V18.6625C21 20.2428 19.5321 21.3842 18.0348 20.8789C14.9595 19.8413 10.1858 17.8656 7.16015 14.8398C4.13448 11.8142 2.15871 7.04049 1.12104 3.96522C0.615813 2.46786 1.75719 1 3.33745 1H6.44012Z" stroke="#FA4F19" stroke-width="1.32" stroke-linejoin="round"/>
</svg>
