<svg width="27" height="27" viewBox="0 0 27 27" fill="none" xmlns="http://www.w3.org/2000/svg">
<g clip-path="url(#clip0_2_1427)">
<path d="M26.7245 0H0.275513V26.449H26.7245V0Z" fill="#FA4F19" fill-opacity="0.01"/>
<path d="M9.64081 4.23511C10.0411 4.23511 10.41 4.45222 10.6043 4.80225L11.9523 7.23049C12.1288 7.54843 12.1372 7.93299 11.9745 8.25826L10.6758 10.8556C10.6758 10.8556 11.0522 12.7905 12.6272 14.3655C14.2023 15.9405 16.1307 16.3104 16.1307 16.3104L18.7276 15.0119C19.0531 14.8492 19.4379 14.8576 19.756 15.0344L22.1911 16.3883C22.5408 16.5827 22.7576 16.9514 22.7576 17.3515V20.1471C22.7576 21.5707 21.4352 22.599 20.0863 22.1438C17.3158 21.209 13.0153 19.4291 10.2895 16.7032C7.56369 13.9775 5.78374 9.67691 4.84891 6.90644C4.39376 5.55748 5.42201 4.23511 6.84565 4.23511H9.64081Z" stroke="#FA4F19" stroke-width="1.32" stroke-linejoin="round"/>
</g>
<defs>
<clipPath id="clip0_2_1427">
<rect width="27" height="27" fill="white"/>
</clipPath>
</defs>
</svg>
